<svg xmlns="http://www.w3.org/2000/svg" viewBox="-19307.025 10385.38 14.822 15.239">
  <defs>
    <style>
      .cls-1 {
        fill: #9da6bf;
      }
    </style>
  </defs>
  <path id="ic-settings" class="cls-1" d="M15.346,10.367A5.938,5.938,0,0,0,15.4,9.62a5.938,5.938,0,0,0-.053-.747l1.608-1.257a.384.384,0,0,0,.091-.488L15.521,4.492a.383.383,0,0,0-.465-.168l-1.9.762a5.567,5.567,0,0,0-1.288-.747l-.29-2.019A.372.372,0,0,0,11.208,2H8.16a.372.372,0,0,0-.373.32L7.5,4.339a5.854,5.854,0,0,0-1.288.747l-1.9-.762a.372.372,0,0,0-.465.168L2.323,7.128a.376.376,0,0,0,.091.488L4.023,8.873a6.043,6.043,0,0,0-.053.747,6.043,6.043,0,0,0,.053.747L2.415,11.624a.384.384,0,0,0-.091.488l1.524,2.636a.383.383,0,0,0,.465.168l1.9-.762A5.567,5.567,0,0,0,7.5,14.9l.29,2.019a.372.372,0,0,0,.373.32h3.048a.372.372,0,0,0,.373-.32l.29-2.019a5.854,5.854,0,0,0,1.288-.747l1.9.762a.372.372,0,0,0,.465-.168l1.524-2.636a.384.384,0,0,0-.091-.488Zm-5.662,1.92A2.667,2.667,0,1,1,12.351,9.62,2.67,2.67,0,0,1,9.684,12.287Z" transform="translate(-19309.297 10383.38)"/>
</svg>
