<svg xmlns="http://www.w3.org/2000/svg" viewBox="-18799.193 10371.3 23.375 23.4">
  <defs>
    <style>
      .cls-1 {
        fill: #3aa1f2;
      }

      .cls-2 {
        fill: #fff;
      }
    </style>
  </defs>
  <g id="ic-twitter" transform="translate(-18799.193 10371.3)">
    <g id="button_copy" data-name="button copy" transform="translate(0 0)">
      <rect id="button_bg" data-name="button bg" class="cls-1" width="23.375" height="23.4" rx="11.687"/>
    </g>
    <path id="Fill_1" data-name="Fill 1" class="cls-2" d="M10.53,1.013a4.32,4.32,0,0,1-1.241.34,2.167,2.167,0,0,0,.95-1.2A4.327,4.327,0,0,1,8.867.682a2.162,2.162,0,0,0-3.681,1.97A6.133,6.133,0,0,1,.733.4,2.163,2.163,0,0,0,1.4,3.28a2.152,2.152,0,0,1-.979-.27c0,.009,0,.018,0,.027A2.162,2.162,0,0,0,2.156,5.155a2.166,2.166,0,0,1-.976.037A2.163,2.163,0,0,0,3.2,6.692a4.335,4.335,0,0,1-2.683.925A4.395,4.395,0,0,1,0,7.587a6.115,6.115,0,0,0,3.312.971A6.1,6.1,0,0,0,9.458,2.411q0-.141-.006-.279A4.391,4.391,0,0,0,10.53,1.013" transform="translate(6.435 7.605)"/>
  </g>
</svg>
